<?xml version="1.0" encoding="utf-8" standalone="no"?>
<!DOCTYPE svg PUBLIC "-//W3C//DTD SVG 1.1//EN"
  "http://www.w3.org/Graphics/SVG/1.1/DTD/svg11.dtd">
<svg xmlns:xlink="http://www.w3.org/1999/xlink" width="460.8pt" height="345.6pt" viewBox="0 0 460.8 345.6" xmlns="http://www.w3.org/2000/svg" version="1.1">
 <metadata>
  <rdf:RDF xmlns:dc="http://purl.org/dc/elements/1.1/" xmlns:cc="http://creativecommons.org/ns#" xmlns:rdf="http://www.w3.org/1999/02/22-rdf-syntax-ns#">
   <cc:Work>
    <dc:type rdf:resource="http://purl.org/dc/dcmitype/StillImage"/>
    <dc:date>2026-01-28T06:01:14.521686</dc:date>
    <dc:format>image/svg+xml</dc:format>
    <dc:creator>
     <cc:Agent>
      <dc:title>Matplotlib v3.9.0, https://matplotlib.org/</dc:title>
     </cc:Agent>
    </dc:creator>
   </cc:Work>
  </rdf:RDF>
 </metadata>
 <defs>
  <style type="text/css">*{stroke-linejoin: round; stroke-linecap: butt}</style>
 </defs>
 <g id="figure_1">
  <g id="patch_1">
   <path d="M 0 345.6 
L 460.8 345.6 
L 460.8 0 
L 0 0 
z
" style="fill: #ffffff"/>
  </g>
  <g id="axes_1">
   <g id="patch_2">
    <path d="M 57.6 307.584 
L 414.72 307.584 
L 414.72 41.472 
L 57.6 41.472 
z
" style="fill: #ffffff"/>
   </g>
   <g id="matplotlib.axis_1">
    <g id="xtick_1">
     <g id="line2d_1">
      <path d="M 68.186561 307.584 
L 68.186561 41.472 
" clip-path="url(#p86fb5a60d5)" style="fill: none; stroke: #b0b0b0; stroke-width: 0.8; stroke-linecap: square"/>
     </g>
     <g id="line2d_2">
      <defs>
       <path id="m6e30741564" d="M 0 0 
L 0 3.5 
" style="stroke: #000000; stroke-width: 0.8"/>
      </defs>
      <g>
       <use xlink:href="#m6e30741564" x="68.186561" y="307.584" style="stroke: #000000; stroke-width: 0.8"/>
      </g>
     </g>
     <g id="text_1">
      <!-- 0 -->
      <g transform="translate(65.005311 322.182437) scale(0.1 -0.1)">
       <defs>
        <path id="DejaVuSans-30" d="M 2034 4250 
Q 1547 4250 1301 3770 
Q 1056 3291 1056 2328 
Q 1056 1369 1301 889 
Q 1547 409 2034 409 
Q 2525 409 2770 889 
Q 3016 1369 3016 2328 
Q 3016 3291 2770 3770 
Q 2525 4250 2034 4250 
z
M 2034 4750 
Q 2819 4750 3233 4129 
Q 3647 3509 3647 2328 
Q 3647 1150 3233 529 
Q 2819 -91 2034 -91 
Q 1250 -91 836 529 
Q 422 1150 422 2328 
Q 422 3509 836 4129 
Q 1250 4750 2034 4750 
z
" transform="scale(0.015625)"/>
       </defs>
       <use xlink:href="#DejaVuSans-30"/>
      </g>
     </g>
    </g>
    <g id="xtick_2">
     <g id="line2d_3">
      <path d="M 124.648221 307.584 
L 124.648221 41.472 
" clip-path="url(#p86fb5a60d5)" style="fill: none; stroke: #b0b0b0; stroke-width: 0.8; stroke-linecap: square"/>
     </g>
     <g id="line2d_4">
      <g>
       <use xlink:href="#m6e30741564" x="124.648221" y="307.584" style="stroke: #000000; stroke-width: 0.8"/>
      </g>
     </g>
     <g id="text_2">
      <!-- 100 -->
      <g transform="translate(115.104471 322.182437) scale(0.1 -0.1)">
       <defs>
        <path id="DejaVuSans-31" d="M 794 531 
L 1825 531 
L 1825 4091 
L 703 3866 
L 703 4441 
L 1819 4666 
L 2450 4666 
L 2450 531 
L 3481 531 
L 3481 0 
L 794 0 
L 794 531 
z
" transform="scale(0.015625)"/>
       </defs>
       <use xlink:href="#DejaVuSans-31"/>
       <use xlink:href="#DejaVuSans-30" x="63.623047"/>
       <use xlink:href="#DejaVuSans-30" x="127.246094"/>
      </g>
     </g>
    </g>
    <g id="xtick_3">
     <g id="line2d_5">
      <path d="M 181.109881 307.584 
L 181.109881 41.472 
" clip-path="url(#p86fb5a60d5)" style="fill: none; stroke: #b0b0b0; stroke-width: 0.8; stroke-linecap: square"/>
     </g>
     <g id="line2d_6">
      <g>
       <use xlink:href="#m6e30741564" x="181.109881" y="307.584" style="stroke: #000000; stroke-width: 0.8"/>
      </g>
     </g>
     <g id="text_3">
      <!-- 200 -->
      <g transform="translate(171.566131 322.182437) scale(0.1 -0.1)">
       <defs>
        <path id="DejaVuSans-32" d="M 1228 531 
L 3431 531 
L 3431 0 
L 469 0 
L 469 531 
Q 828 903 1448 1529 
Q 2069 2156 2228 2338 
Q 2531 2678 2651 2914 
Q 2772 3150 2772 3378 
Q 2772 3750 2511 3984 
Q 2250 4219 1831 4219 
Q 1534 4219 1204 4116 
Q 875 4013 500 3803 
L 500 4441 
Q 881 4594 1212 4672 
Q 1544 4750 1819 4750 
Q 2544 4750 2975 4387 
Q 3406 4025 3406 3419 
Q 3406 3131 3298 2873 
Q 3191 2616 2906 2266 
Q 2828 2175 2409 1742 
Q 1991 1309 1228 531 
z
" transform="scale(0.015625)"/>
       </defs>
       <use xlink:href="#DejaVuSans-32"/>
       <use xlink:href="#DejaVuSans-30" x="63.623047"/>
       <use xlink:href="#DejaVuSans-30" x="127.246094"/>
      </g>
     </g>
    </g>
    <g id="xtick_4">
     <g id="line2d_7">
      <path d="M 237.571542 307.584 
L 237.571542 41.472 
" clip-path="url(#p86fb5a60d5)" style="fill: none; stroke: #b0b0b0; stroke-width: 0.8; stroke-linecap: square"/>
     </g>
     <g id="line2d_8">
      <g>
       <use xlink:href="#m6e30741564" x="237.571542" y="307.584" style="stroke: #000000; stroke-width: 0.8"/>
      </g>
     </g>
     <g id="text_4">
      <!-- 300 -->
      <g transform="translate(228.027792 322.182437) scale(0.1 -0.1)">
       <defs>
        <path id="DejaVuSans-33" d="M 2597 2516 
Q 3050 2419 3304 2112 
Q 3559 1806 3559 1356 
Q 3559 666 3084 287 
Q 2609 -91 1734 -91 
Q 1441 -91 1130 -33 
Q 819 25 488 141 
L 488 750 
Q 750 597 1062 519 
Q 1375 441 1716 441 
Q 2309 441 2620 675 
Q 2931 909 2931 1356 
Q 2931 1769 2642 2001 
Q 2353 2234 1838 2234 
L 1294 2234 
L 1294 2753 
L 1863 2753 
Q 2328 2753 2575 2939 
Q 2822 3125 2822 3475 
Q 2822 3834 2567 4026 
Q 2313 4219 1838 4219 
Q 1578 4219 1281 4162 
Q 984 4106 628 3988 
L 628 4550 
Q 988 4650 1302 4700 
Q 1616 4750 1894 4750 
Q 2613 4750 3031 4423 
Q 3450 4097 3450 3541 
Q 3450 3153 3228 2886 
Q 3006 2619 2597 2516 
z
" transform="scale(0.015625)"/>
       </defs>
       <use xlink:href="#DejaVuSans-33"/>
       <use xlink:href="#DejaVuSans-30" x="63.623047"/>
       <use xlink:href="#DejaVuSans-30" x="127.246094"/>
      </g>
     </g>
    </g>
    <g id="xtick_5">
     <g id="line2d_9">
      <path d="M 294.033202 307.584 
L 294.033202 41.472 
" clip-path="url(#p86fb5a60d5)" style="fill: none; stroke: #b0b0b0; stroke-width: 0.8; stroke-linecap: square"/>
     </g>
     <g id="line2d_10">
      <g>
       <use xlink:href="#m6e30741564" x="294.033202" y="307.584" style="stroke: #000000; stroke-width: 0.8"/>
      </g>
     </g>
     <g id="text_5">
      <!-- 400 -->
      <g transform="translate(284.489452 322.182437) scale(0.1 -0.1)">
       <defs>
        <path id="DejaVuSans-34" d="M 2419 4116 
L 825 1625 
L 2419 1625 
L 2419 4116 
z
M 2253 4666 
L 3047 4666 
L 3047 1625 
L 3713 1625 
L 3713 1100 
L 3047 1100 
L 3047 0 
L 2419 0 
L 2419 1100 
L 313 1100 
L 313 1709 
L 2253 4666 
z
" transform="scale(0.015625)"/>
       </defs>
       <use xlink:href="#DejaVuSans-34"/>
       <use xlink:href="#DejaVuSans-30" x="63.623047"/>
       <use xlink:href="#DejaVuSans-30" x="127.246094"/>
      </g>
     </g>
    </g>
    <g id="xtick_6">
     <g id="line2d_11">
      <path d="M 350.494862 307.584 
L 350.494862 41.472 
" clip-path="url(#p86fb5a60d5)" style="fill: none; stroke: #b0b0b0; stroke-width: 0.8; stroke-linecap: square"/>
     </g>
     <g id="line2d_12">
      <g>
       <use xlink:href="#m6e30741564" x="350.494862" y="307.584" style="stroke: #000000; stroke-width: 0.8"/>
      </g>
     </g>
     <g id="text_6">
      <!-- 500 -->
      <g transform="translate(340.951112 322.182437) scale(0.1 -0.1)">
       <defs>
        <path id="DejaVuSans-35" d="M 691 4666 
L 3169 4666 
L 3169 4134 
L 1269 4134 
L 1269 2991 
Q 1406 3038 1543 3061 
Q 1681 3084 1819 3084 
Q 2600 3084 3056 2656 
Q 3513 2228 3513 1497 
Q 3513 744 3044 326 
Q 2575 -91 1722 -91 
Q 1428 -91 1123 -41 
Q 819 9 494 109 
L 494 744 
Q 775 591 1075 516 
Q 1375 441 1709 441 
Q 2250 441 2565 725 
Q 2881 1009 2881 1497 
Q 2881 1984 2565 2268 
Q 2250 2553 1709 2553 
Q 1456 2553 1204 2497 
Q 953 2441 691 2322 
L 691 4666 
z
" transform="scale(0.015625)"/>
       </defs>
       <use xlink:href="#DejaVuSans-35"/>
       <use xlink:href="#DejaVuSans-30" x="63.623047"/>
       <use xlink:href="#DejaVuSans-30" x="127.246094"/>
      </g>
     </g>
    </g>
    <g id="xtick_7">
     <g id="line2d_13">
      <path d="M 406.956522 307.584 
L 406.956522 41.472 
" clip-path="url(#p86fb5a60d5)" style="fill: none; stroke: #b0b0b0; stroke-width: 0.8; stroke-linecap: square"/>
     </g>
     <g id="line2d_14">
      <g>
       <use xlink:href="#m6e30741564" x="406.956522" y="307.584" style="stroke: #000000; stroke-width: 0.8"/>
      </g>
     </g>
     <g id="text_7">
      <!-- 600 -->
      <g transform="translate(397.412772 322.182437) scale(0.1 -0.1)">
       <defs>
        <path id="DejaVuSans-36" d="M 2113 2584 
Q 1688 2584 1439 2293 
Q 1191 2003 1191 1497 
Q 1191 994 1439 701 
Q 1688 409 2113 409 
Q 2538 409 2786 701 
Q 3034 994 3034 1497 
Q 3034 2003 2786 2293 
Q 2538 2584 2113 2584 
z
M 3366 4563 
L 3366 3988 
Q 3128 4100 2886 4159 
Q 2644 4219 2406 4219 
Q 1781 4219 1451 3797 
Q 1122 3375 1075 2522 
Q 1259 2794 1537 2939 
Q 1816 3084 2150 3084 
Q 2853 3084 3261 2657 
Q 3669 2231 3669 1497 
Q 3669 778 3244 343 
Q 2819 -91 2113 -91 
Q 1303 -91 875 529 
Q 447 1150 447 2328 
Q 447 3434 972 4092 
Q 1497 4750 2381 4750 
Q 2619 4750 2861 4703 
Q 3103 4656 3366 4563 
z
" transform="scale(0.015625)"/>
       </defs>
       <use xlink:href="#DejaVuSans-36"/>
       <use xlink:href="#DejaVuSans-30" x="63.623047"/>
       <use xlink:href="#DejaVuSans-30" x="127.246094"/>
      </g>
     </g>
    </g>
    <g id="text_8">
     <!-- episode -->
     <g transform="translate(216.605312 335.860562) scale(0.1 -0.1)">
      <defs>
       <path id="DejaVuSans-65" d="M 3597 1894 
L 3597 1613 
L 953 1613 
Q 991 1019 1311 708 
Q 1631 397 2203 397 
Q 2534 397 2845 478 
Q 3156 559 3463 722 
L 3463 178 
Q 3153 47 2828 -22 
Q 2503 -91 2169 -91 
Q 1331 -91 842 396 
Q 353 884 353 1716 
Q 353 2575 817 3079 
Q 1281 3584 2069 3584 
Q 2775 3584 3186 3129 
Q 3597 2675 3597 1894 
z
M 3022 2063 
Q 3016 2534 2758 2815 
Q 2500 3097 2075 3097 
Q 1594 3097 1305 2825 
Q 1016 2553 972 2059 
L 3022 2063 
z
" transform="scale(0.015625)"/>
       <path id="DejaVuSans-70" d="M 1159 525 
L 1159 -1331 
L 581 -1331 
L 581 3500 
L 1159 3500 
L 1159 2969 
Q 1341 3281 1617 3432 
Q 1894 3584 2278 3584 
Q 2916 3584 3314 3078 
Q 3713 2572 3713 1747 
Q 3713 922 3314 415 
Q 2916 -91 2278 -91 
Q 1894 -91 1617 61 
Q 1341 213 1159 525 
z
M 3116 1747 
Q 3116 2381 2855 2742 
Q 2594 3103 2138 3103 
Q 1681 3103 1420 2742 
Q 1159 2381 1159 1747 
Q 1159 1113 1420 752 
Q 1681 391 2138 391 
Q 2594 391 2855 752 
Q 3116 1113 3116 1747 
z
" transform="scale(0.015625)"/>
       <path id="DejaVuSans-69" d="M 603 3500 
L 1178 3500 
L 1178 0 
L 603 0 
L 603 3500 
z
M 603 4863 
L 1178 4863 
L 1178 4134 
L 603 4134 
L 603 4863 
z
" transform="scale(0.015625)"/>
       <path id="DejaVuSans-73" d="M 2834 3397 
L 2834 2853 
Q 2591 2978 2328 3040 
Q 2066 3103 1784 3103 
Q 1356 3103 1142 2972 
Q 928 2841 928 2578 
Q 928 2378 1081 2264 
Q 1234 2150 1697 2047 
L 1894 2003 
Q 2506 1872 2764 1633 
Q 3022 1394 3022 966 
Q 3022 478 2636 193 
Q 2250 -91 1575 -91 
Q 1294 -91 989 -36 
Q 684 19 347 128 
L 347 722 
Q 666 556 975 473 
Q 1284 391 1588 391 
Q 1994 391 2212 530 
Q 2431 669 2431 922 
Q 2431 1156 2273 1281 
Q 2116 1406 1581 1522 
L 1381 1569 
Q 847 1681 609 1914 
Q 372 2147 372 2553 
Q 372 3047 722 3315 
Q 1072 3584 1716 3584 
Q 2034 3584 2315 3537 
Q 2597 3491 2834 3397 
z
" transform="scale(0.015625)"/>
       <path id="DejaVuSans-6f" d="M 1959 3097 
Q 1497 3097 1228 2736 
Q 959 2375 959 1747 
Q 959 1119 1226 758 
Q 1494 397 1959 397 
Q 2419 397 2687 759 
Q 2956 1122 2956 1747 
Q 2956 2369 2687 2733 
Q 2419 3097 1959 3097 
z
M 1959 3584 
Q 2709 3584 3137 3096 
Q 3566 2609 3566 1747 
Q 3566 888 3137 398 
Q 2709 -91 1959 -91 
Q 1206 -91 779 398 
Q 353 888 353 1747 
Q 353 2609 779 3096 
Q 1206 3584 1959 3584 
z
" transform="scale(0.015625)"/>
       <path id="DejaVuSans-64" d="M 2906 2969 
L 2906 4863 
L 3481 4863 
L 3481 0 
L 2906 0 
L 2906 525 
Q 2725 213 2448 61 
Q 2172 -91 1784 -91 
Q 1150 -91 751 415 
Q 353 922 353 1747 
Q 353 2572 751 3078 
Q 1150 3584 1784 3584 
Q 2172 3584 2448 3432 
Q 2725 3281 2906 2969 
z
M 947 1747 
Q 947 1113 1208 752 
Q 1469 391 1925 391 
Q 2381 391 2643 752 
Q 2906 1113 2906 1747 
Q 2906 2381 2643 2742 
Q 2381 3103 1925 3103 
Q 1469 3103 1208 2742 
Q 947 2381 947 1747 
z
" transform="scale(0.015625)"/>
      </defs>
      <use xlink:href="#DejaVuSans-65"/>
      <use xlink:href="#DejaVuSans-70" x="61.523438"/>
      <use xlink:href="#DejaVuSans-69" x="125"/>
      <use xlink:href="#DejaVuSans-73" x="152.783203"/>
      <use xlink:href="#DejaVuSans-6f" x="204.882812"/>
      <use xlink:href="#DejaVuSans-64" x="266.064453"/>
      <use xlink:href="#DejaVuSans-65" x="329.541016"/>
     </g>
    </g>
   </g>
   <g id="matplotlib.axis_2">
    <g id="ytick_1">
     <g id="line2d_15">
      <path d="M 57.6 276.715607 
L 414.72 276.715607 
" clip-path="url(#p86fb5a60d5)" style="fill: none; stroke: #b0b0b0; stroke-width: 0.8; stroke-linecap: square"/>
     </g>
     <g id="line2d_16">
      <defs>
       <path id="me89a0024ad" d="M 0 0 
L -3.5 0 
" style="stroke: #000000; stroke-width: 0.8"/>
      </defs>
      <g>
       <use xlink:href="#me89a0024ad" x="57.6" y="276.715607" style="stroke: #000000; stroke-width: 0.8"/>
      </g>
     </g>
     <g id="text_9">
      <!-- 4.9352 -->
      <g transform="translate(15.609375 280.514826) scale(0.1 -0.1)">
       <defs>
        <path id="DejaVuSans-2e" d="M 684 794 
L 1344 794 
L 1344 0 
L 684 0 
L 684 794 
z
" transform="scale(0.015625)"/>
        <path id="DejaVuSans-39" d="M 703 97 
L 703 672 
Q 941 559 1184 500 
Q 1428 441 1663 441 
Q 2288 441 2617 861 
Q 2947 1281 2994 2138 
Q 2813 1869 2534 1725 
Q 2256 1581 1919 1581 
Q 1219 1581 811 2004 
Q 403 2428 403 3163 
Q 403 3881 828 4315 
Q 1253 4750 1959 4750 
Q 2769 4750 3195 4129 
Q 3622 3509 3622 2328 
Q 3622 1225 3098 567 
Q 2575 -91 1691 -91 
Q 1453 -91 1209 -44 
Q 966 3 703 97 
z
M 1959 2075 
Q 2384 2075 2632 2365 
Q 2881 2656 2881 3163 
Q 2881 3666 2632 3958 
Q 2384 4250 1959 4250 
Q 1534 4250 1286 3958 
Q 1038 3666 1038 3163 
Q 1038 2656 1286 2365 
Q 1534 2075 1959 2075 
z
" transform="scale(0.015625)"/>
       </defs>
       <use xlink:href="#DejaVuSans-34"/>
       <use xlink:href="#DejaVuSans-2e" x="63.623047"/>
       <use xlink:href="#DejaVuSans-39" x="95.410156"/>
       <use xlink:href="#DejaVuSans-33" x="159.033203"/>
       <use xlink:href="#DejaVuSans-35" x="222.65625"/>
       <use xlink:href="#DejaVuSans-32" x="286.279297"/>
      </g>
     </g>
    </g>
    <g id="ytick_2">
     <g id="line2d_17">
      <path d="M 57.6 230.624633 
L 414.72 230.624633 
" clip-path="url(#p86fb5a60d5)" style="fill: none; stroke: #b0b0b0; stroke-width: 0.8; stroke-linecap: square"/>
     </g>
     <g id="line2d_18">
      <g>
       <use xlink:href="#me89a0024ad" x="57.6" y="230.624633" style="stroke: #000000; stroke-width: 0.8"/>
      </g>
     </g>
     <g id="text_10">
      <!-- 4.9354 -->
      <g transform="translate(15.609375 234.423852) scale(0.1 -0.1)">
       <use xlink:href="#DejaVuSans-34"/>
       <use xlink:href="#DejaVuSans-2e" x="63.623047"/>
       <use xlink:href="#DejaVuSans-39" x="95.410156"/>
       <use xlink:href="#DejaVuSans-33" x="159.033203"/>
       <use xlink:href="#DejaVuSans-35" x="222.65625"/>
       <use xlink:href="#DejaVuSans-34" x="286.279297"/>
      </g>
     </g>
    </g>
    <g id="ytick_3">
     <g id="line2d_19">
      <path d="M 57.6 184.533659 
L 414.72 184.533659 
" clip-path="url(#p86fb5a60d5)" style="fill: none; stroke: #b0b0b0; stroke-width: 0.8; stroke-linecap: square"/>
     </g>
     <g id="line2d_20">
      <g>
       <use xlink:href="#me89a0024ad" x="57.6" y="184.533659" style="stroke: #000000; stroke-width: 0.8"/>
      </g>
     </g>
     <g id="text_11">
      <!-- 4.9356 -->
      <g transform="translate(15.609375 188.332878) scale(0.1 -0.1)">
       <use xlink:href="#DejaVuSans-34"/>
       <use xlink:href="#DejaVuSans-2e" x="63.623047"/>
       <use xlink:href="#DejaVuSans-39" x="95.410156"/>
       <use xlink:href="#DejaVuSans-33" x="159.033203"/>
       <use xlink:href="#DejaVuSans-35" x="222.65625"/>
       <use xlink:href="#DejaVuSans-36" x="286.279297"/>
      </g>
     </g>
    </g>
    <g id="ytick_4">
     <g id="line2d_21">
      <path d="M 57.6 138.442685 
L 414.72 138.442685 
" clip-path="url(#p86fb5a60d5)" style="fill: none; stroke: #b0b0b0; stroke-width: 0.8; stroke-linecap: square"/>
     </g>
     <g id="line2d_22">
      <g>
       <use xlink:href="#me89a0024ad" x="57.6" y="138.442685" style="stroke: #000000; stroke-width: 0.8"/>
      </g>
     </g>
     <g id="text_12">
      <!-- 4.9358 -->
      <g transform="translate(15.609375 142.241904) scale(0.1 -0.1)">
       <defs>
        <path id="DejaVuSans-38" d="M 2034 2216 
Q 1584 2216 1326 1975 
Q 1069 1734 1069 1313 
Q 1069 891 1326 650 
Q 1584 409 2034 409 
Q 2484 409 2743 651 
Q 3003 894 3003 1313 
Q 3003 1734 2745 1975 
Q 2488 2216 2034 2216 
z
M 1403 2484 
Q 997 2584 770 2862 
Q 544 3141 544 3541 
Q 544 4100 942 4425 
Q 1341 4750 2034 4750 
Q 2731 4750 3128 4425 
Q 3525 4100 3525 3541 
Q 3525 3141 3298 2862 
Q 3072 2584 2669 2484 
Q 3125 2378 3379 2068 
Q 3634 1759 3634 1313 
Q 3634 634 3220 271 
Q 2806 -91 2034 -91 
Q 1263 -91 848 271 
Q 434 634 434 1313 
Q 434 1759 690 2068 
Q 947 2378 1403 2484 
z
M 1172 3481 
Q 1172 3119 1398 2916 
Q 1625 2713 2034 2713 
Q 2441 2713 2670 2916 
Q 2900 3119 2900 3481 
Q 2900 3844 2670 4047 
Q 2441 4250 2034 4250 
Q 1625 4250 1398 4047 
Q 1172 3844 1172 3481 
z
" transform="scale(0.015625)"/>
       </defs>
       <use xlink:href="#DejaVuSans-34"/>
       <use xlink:href="#DejaVuSans-2e" x="63.623047"/>
       <use xlink:href="#DejaVuSans-39" x="95.410156"/>
       <use xlink:href="#DejaVuSans-33" x="159.033203"/>
       <use xlink:href="#DejaVuSans-35" x="222.65625"/>
       <use xlink:href="#DejaVuSans-38" x="286.279297"/>
      </g>
     </g>
    </g>
    <g id="ytick_5">
     <g id="line2d_23">
      <path d="M 57.6 92.351711 
L 414.72 92.351711 
" clip-path="url(#p86fb5a60d5)" style="fill: none; stroke: #b0b0b0; stroke-width: 0.8; stroke-linecap: square"/>
     </g>
     <g id="line2d_24">
      <g>
       <use xlink:href="#me89a0024ad" x="57.6" y="92.351711" style="stroke: #000000; stroke-width: 0.8"/>
      </g>
     </g>
     <g id="text_13">
      <!-- 4.9360 -->
      <g transform="translate(15.609375 96.15093) scale(0.1 -0.1)">
       <use xlink:href="#DejaVuSans-34"/>
       <use xlink:href="#DejaVuSans-2e" x="63.623047"/>
       <use xlink:href="#DejaVuSans-39" x="95.410156"/>
       <use xlink:href="#DejaVuSans-33" x="159.033203"/>
       <use xlink:href="#DejaVuSans-36" x="222.65625"/>
       <use xlink:href="#DejaVuSans-30" x="286.279297"/>
      </g>
     </g>
    </g>
    <g id="ytick_6">
     <g id="line2d_25">
      <path d="M 57.6 46.260737 
L 414.72 46.260737 
" clip-path="url(#p86fb5a60d5)" style="fill: none; stroke: #b0b0b0; stroke-width: 0.8; stroke-linecap: square"/>
     </g>
     <g id="line2d_26">
      <g>
       <use xlink:href="#me89a0024ad" x="57.6" y="46.260737" style="stroke: #000000; stroke-width: 0.8"/>
      </g>
     </g>
     <g id="text_14">
      <!-- 4.9362 -->
      <g transform="translate(15.609375 50.059956) scale(0.1 -0.1)">
       <use xlink:href="#DejaVuSans-34"/>
       <use xlink:href="#DejaVuSans-2e" x="63.623047"/>
       <use xlink:href="#DejaVuSans-39" x="95.410156"/>
       <use xlink:href="#DejaVuSans-33" x="159.033203"/>
       <use xlink:href="#DejaVuSans-36" x="222.65625"/>
       <use xlink:href="#DejaVuSans-32" x="286.279297"/>
      </g>
     </g>
    </g>
    <g id="text_15">
     <!-- entropy, window 10 -->
     <g transform="translate(9.529687 223.968625) rotate(-90) scale(0.1 -0.1)">
      <defs>
       <path id="DejaVuSans-6e" d="M 3513 2113 
L 3513 0 
L 2938 0 
L 2938 2094 
Q 2938 2591 2744 2837 
Q 2550 3084 2163 3084 
Q 1697 3084 1428 2787 
Q 1159 2491 1159 1978 
L 1159 0 
L 581 0 
L 581 3500 
L 1159 3500 
L 1159 2956 
Q 1366 3272 1645 3428 
Q 1925 3584 2291 3584 
Q 2894 3584 3203 3211 
Q 3513 2838 3513 2113 
z
" transform="scale(0.015625)"/>
       <path id="DejaVuSans-74" d="M 1172 4494 
L 1172 3500 
L 2356 3500 
L 2356 3053 
L 1172 3053 
L 1172 1153 
Q 1172 725 1289 603 
Q 1406 481 1766 481 
L 2356 481 
L 2356 0 
L 1766 0 
Q 1100 0 847 248 
Q 594 497 594 1153 
L 594 3053 
L 172 3053 
L 172 3500 
L 594 3500 
L 594 4494 
L 1172 4494 
z
" transform="scale(0.015625)"/>
       <path id="DejaVuSans-72" d="M 2631 2963 
Q 2534 3019 2420 3045 
Q 2306 3072 2169 3072 
Q 1681 3072 1420 2755 
Q 1159 2438 1159 1844 
L 1159 0 
L 581 0 
L 581 3500 
L 1159 3500 
L 1159 2956 
Q 1341 3275 1631 3429 
Q 1922 3584 2338 3584 
Q 2397 3584 2469 3576 
Q 2541 3569 2628 3553 
L 2631 2963 
z
" transform="scale(0.015625)"/>
       <path id="DejaVuSans-79" d="M 2059 -325 
Q 1816 -950 1584 -1140 
Q 1353 -1331 966 -1331 
L 506 -1331 
L 506 -850 
L 844 -850 
Q 1081 -850 1212 -737 
Q 1344 -625 1503 -206 
L 1606 56 
L 191 3500 
L 800 3500 
L 1894 763 
L 2988 3500 
L 3597 3500 
L 2059 -325 
z
" transform="scale(0.015625)"/>
       <path id="DejaVuSans-2c" d="M 750 794 
L 1409 794 
L 1409 256 
L 897 -744 
L 494 -744 
L 750 256 
L 750 794 
z
" transform="scale(0.015625)"/>
       <path id="DejaVuSans-20" transform="scale(0.015625)"/>
       <path id="DejaVuSans-77" d="M 269 3500 
L 844 3500 
L 1563 769 
L 2278 3500 
L 2956 3500 
L 3675 769 
L 4391 3500 
L 4966 3500 
L 4050 0 
L 3372 0 
L 2619 2869 
L 1863 0 
L 1184 0 
L 269 3500 
z
" transform="scale(0.015625)"/>
      </defs>
      <use xlink:href="#DejaVuSans-65"/>
      <use xlink:href="#DejaVuSans-6e" x="61.523438"/>
      <use xlink:href="#DejaVuSans-74" x="124.902344"/>
      <use xlink:href="#DejaVuSans-72" x="164.111328"/>
      <use xlink:href="#DejaVuSans-6f" x="202.974609"/>
      <use xlink:href="#DejaVuSans-70" x="264.15625"/>
      <use xlink:href="#DejaVuSans-79" x="327.632812"/>
      <use xlink:href="#DejaVuSans-2c" x="386.8125"/>
      <use xlink:href="#DejaVuSans-20" x="418.599609"/>
      <use xlink:href="#DejaVuSans-77" x="450.386719"/>
      <use xlink:href="#DejaVuSans-69" x="532.173828"/>
      <use xlink:href="#DejaVuSans-6e" x="559.957031"/>
      <use xlink:href="#DejaVuSans-64" x="623.335938"/>
      <use xlink:href="#DejaVuSans-6f" x="686.8125"/>
      <use xlink:href="#DejaVuSans-77" x="747.994141"/>
      <use xlink:href="#DejaVuSans-20" x="829.78125"/>
      <use xlink:href="#DejaVuSans-31" x="861.568359"/>
      <use xlink:href="#DejaVuSans-30" x="925.191406"/>
     </g>
    </g>
   </g>
   <g id="line2d_27">
    <path d="M 73.832727 64.787926 
L 74.397344 110.658124 
L 74.96196 113.20465 
L 75.526577 53.568 
L 76.091194 129.884052 
L 76.65581 95.19368 
L 77.220427 92.049815 
L 77.785043 141.703161 
L 78.34966 170.013159 
L 78.914277 68.217094 
L 79.478893 114.292397 
L 80.04351 116.777162 
L 80.608126 56.771323 
L 81.172743 133.390653 
L 81.73736 98.283158 
L 82.301976 95.073383 
L 82.866593 144.823059 
L 83.431209 173.205419 
L 83.995826 71.13834 
L 84.560443 117.357447 
L 85.125059 119.652317 
L 85.689676 59.440451 
L 86.254292 136.526683 
L 86.818909 101.212701 
L 87.383526 98.135667 
L 87.948142 148.06648 
L 88.512759 176.667313 
L 89.077375 74.405729 
L 89.641992 120.833168 
L 90.206609 123.059822 
L 90.771225 62.671889 
L 91.335842 140.189994 
L 91.900458 104.607301 
L 92.465075 101.635816 
L 93.029692 151.676786 
L 93.594308 180.403908 
L 94.158925 77.84596 
L 94.723542 124.449004 
L 95.288158 126.514802 
L 95.852775 65.862306 
L 96.417391 143.764349 
L 96.982008 107.907415 
L 97.546625 105.031338 
L 98.111241 155.190301 
L 98.675858 184.064914 
L 99.240474 81.231803 
L 99.805091 127.987409 
L 100.369708 129.919542 
L 100.934324 69.072082 
L 101.498941 147.383873 
L 102.063557 111.316764 
L 102.628174 108.579882 
L 103.192791 158.89325 
L 103.757407 187.937478 
L 104.322024 84.819985 
L 104.88664 131.749815 
L 105.451257 133.583775 
L 106.015874 72.522452 
L 106.58049 151.261046 
L 107.145107 114.975466 
L 107.709723 112.370404 
L 108.27434 162.82481 
L 108.838957 191.983343 
L 109.403573 88.525238 
L 109.96819 135.594724 
L 110.532806 137.30516 
L 111.097423 76.023983 
L 111.66204 155.127157 
L 112.226656 118.56457 
L 112.791273 116.059064 
L 113.355889 166.642526 
L 113.920506 195.915825 
L 114.485123 92.135083 
L 115.049739 139.354365 
L 115.614356 140.965705 
L 116.178972 79.470206 
L 116.743589 158.96423 
L 117.308206 122.206679 
L 117.872822 119.842672 
L 118.437439 170.589296 
L 119.002055 200.009625 
L 119.566672 95.914543 
L 120.131289 143.312657 
L 120.695905 144.86961 
L 121.260522 83.18099 
L 121.825138 163.095825 
L 122.389755 126.14884 
L 122.954372 123.951683 
L 123.518988 174.886818 
L 124.083605 204.490129 
L 124.648221 100.024936 
L 125.212838 147.576994 
L 125.777455 149.054671 
L 126.342071 87.136517 
L 126.906688 167.42976 
L 127.471304 130.266146 
L 128.035921 128.189287 
L 128.600538 179.274679 
L 129.165154 209.0453 
L 129.729771 104.18649 
L 130.294387 151.928443 
L 130.859004 153.356342 
L 131.423621 91.218334 
L 131.988237 171.924551 
L 132.552854 134.582566 
L 133.11747 132.658268 
L 133.682087 183.960287 
L 134.246704 213.90928 
L 134.81132 108.616294 
L 135.375937 156.543532 
L 135.940553 157.885702 
L 136.50517 95.503873 
L 137.069787 176.648415 
L 137.634403 139.101786 
L 138.19902 137.349868 
L 138.763636 188.877272 
L 139.328253 219.00095 
L 139.89287 113.280701 
L 140.457486 161.443464 
L 141.022103 162.739542 
L 141.586719 100.142929 
L 142.151336 181.77788 
L 142.715953 144.039512 
L 143.280569 142.477028 
L 143.845186 194.236731 
L 144.409802 224.566896 
L 144.974419 118.389885 
L 145.539036 166.798313 
L 146.103652 168.028942 
L 146.668269 105.172837 
L 147.232885 187.292665 
L 147.797502 149.304484 
L 148.362119 147.894561 
L 148.926735 199.843237 
L 149.491352 230.346705 
L 150.055968 123.602313 
L 150.620585 172.196949 
L 151.185202 173.325717 
L 151.749818 110.197214 
L 152.314435 192.811137 
L 152.879051 154.594345 
L 153.443668 153.407963 
L 154.008285 205.606913 
L 154.572901 236.370795 
L 155.137518 129.078382 
L 155.702134 177.928823 
L 156.266751 179.002281 
L 156.831368 115.574187 
L 157.395984 198.669761 
L 157.960601 160.210069 
L 158.525217 159.202982 
L 159.089834 211.614411 
L 159.654451 242.566805 
L 160.219067 134.662303 
L 160.783684 183.704943 
L 161.3483 184.67608 
L 161.912917 120.963144 
L 162.477534 204.550047 
L 163.04215 165.864049 
L 163.606767 165.046395 
L 164.171383 217.712247 
L 164.736 248.868362 
L 165.300617 140.366983 
L 165.865233 189.593987 
L 166.42985 190.489074 
L 166.994466 126.476085 
L 167.559083 210.472737 
L 168.1237 171.551214 
L 168.688316 170.893035 
L 169.252933 223.761226 
L 169.817549 255.034413 
L 170.382166 145.855036 
L 170.946783 195.219851 
L 171.511399 196.038888 
L 172.076016 131.744284 
L 172.640632 216.175574 
L 173.205249 177.071069 
L 173.769866 176.586653 
L 174.334482 229.672855 
L 174.899099 261.046981 
L 175.463715 151.226939 
L 176.028332 200.759526 
L 176.592949 201.463796 
L 177.157565 136.87467 
L 177.722182 221.669157 
L 178.286798 182.34526 
L 178.851415 182.007413 
L 179.416032 235.251706 
L 179.980648 266.677915 
L 180.545265 156.266065 
L 181.109881 205.920332 
L 181.674498 206.478033 
L 182.239115 141.654304 
L 182.803731 226.831346 
L 183.368348 187.338756 
L 183.932964 187.186195 
L 184.497581 240.677075 
L 185.062198 272.234182 
L 185.626814 161.252186 
L 186.191431 211.058554 
L 186.756047 211.557719 
L 187.320664 146.511832 
L 187.885281 231.992152 
L 188.449897 192.257585 
L 189.014514 192.162637 
L 189.57913 245.724497 
L 190.143747 277.207398 
L 190.708364 165.611932 
L 191.27298 215.476374 
L 191.837597 215.785183 
L 192.402213 150.457219 
L 192.96683 236.182283 
L 193.531447 196.246758 
L 194.096063 196.225556 
L 194.66068 249.945048 
L 195.225296 281.442697 
L 195.789913 169.307045 
L 196.35453 219.22357 
L 196.919146 219.413465 
L 197.483763 153.89284 
L 198.048379 239.796276 
L 198.612996 199.716026 
L 199.177613 199.761195 
L 199.742229 253.618037 
L 200.306846 285.139194 
L 200.871462 172.606237 
L 201.436079 222.647668 
L 202.000696 222.789628 
L 202.565312 157.123818 
L 203.129929 243.271075 
L 203.694545 203.157178 
L 204.259162 203.304208 
L 204.823779 257.325134 
L 205.388395 288.877633 
L 205.953012 175.892984 
L 206.517628 226.056557 
L 207.082245 226.155652 
L 207.646862 160.307782 
L 208.211478 246.826993 
L 208.776095 206.653178 
L 209.340711 206.950465 
L 209.905328 261.184332 
L 210.469945 292.868189 
L 211.034561 179.630962 
L 211.599178 229.978899 
L 212.163794 229.944791 
L 212.728411 163.930533 
L 213.293028 250.576955 
L 213.857644 210.116454 
L 214.422261 210.345526 
L 214.986877 264.274271 
L 215.551494 295.488 
L 216.116111 181.503178 
L 216.680727 231.422929 
L 217.245344 230.880438 
L 217.80996 164.504365 
L 218.374577 250.799113 
L 218.939194 210.048701 
L 219.50381 209.993852 
L 220.068427 263.516535 
L 220.633043 294.350475 
L 221.19766 180.249964 
L 221.762277 230.10104 
L 222.326893 229.447931 
L 222.89151 163.112418 
L 223.456126 249.1509 
L 224.020743 208.446117 
L 224.58536 208.324898 
L 225.149976 262.048077 
L 225.714593 293.155797 
L 226.279209 179.241954 
L 226.843826 228.784221 
L 227.408443 227.982238 
L 227.973059 161.731993 
L 228.537676 247.410966 
L 229.102292 206.858283 
L 229.666909 206.49693 
L 230.231526 259.638901 
L 230.796142 289.736768 
L 231.360759 175.448667 
L 231.925375 224.66507 
L 232.489992 223.759383 
L 233.054609 157.633584 
L 233.619225 242.837819 
L 234.183842 202.552004 
L 234.748458 202.196181 
L 235.313075 255.765416 
L 235.877692 286.659274 
L 236.442308 173.24644 
L 237.006925 222.975375 
L 237.571542 222.62324 
L 238.136158 156.958351 
L 238.700775 242.593998 
L 239.265391 202.962213 
L 239.830008 202.756648 
L 240.394625 256.176547 
L 240.959241 286.604426 
L 241.523858 173.033039 
L 242.088474 222.700212 
L 242.653091 221.901916 
L 243.217708 155.97984 
L 243.782324 241.370744 
L 244.346941 201.361013 
L 244.911557 200.973388 
L 245.476174 254.190487 
L 246.040791 284.743733 
L 246.605407 171.449814 
L 247.170024 220.755173 
L 247.73464 219.68494 
L 248.299257 153.770238 
L 248.863874 238.741254 
L 249.42849 198.66423 
L 249.993107 197.95996 
L 250.557723 250.762702 
L 251.12234 280.909425 
L 251.686957 167.668972 
L 252.251573 216.927778 
L 252.81619 215.965399 
L 253.380806 150.21939 
L 253.945423 234.937826 
L 254.51004 195.155324 
L 255.074656 194.467186 
L 255.639273 247.578737 
L 256.203889 278.316808 
L 256.768506 165.65157 
L 257.333123 215.053719 
L 257.897739 214.343918 
L 258.462356 148.963872 
L 259.026972 233.991118 
L 259.591589 194.658463 
L 260.156206 194.19571 
L 260.720822 247.243656 
L 261.285439 277.792753 
L 261.850055 164.965275 
L 262.414672 214.117151 
L 262.979289 213.16445 
L 263.543905 147.638756 
L 264.108522 232.268698 
L 264.673138 192.602345 
L 265.237755 191.697118 
L 265.802372 244.207643 
L 266.366988 274.382943 
L 266.931605 161.708948 
L 267.496221 210.717481 
L 268.060838 209.664302 
L 268.625455 144.191151 
L 269.190071 228.433929 
L 269.754688 188.838556 
L 270.319304 187.83746 
L 270.883921 240.448002 
L 271.448538 271.041808 
L 272.013154 158.898781 
L 272.577771 208.001339 
L 273.142387 207.200278 
L 273.707004 142.134111 
L 274.271621 226.618867 
L 274.836237 187.47242 
L 275.400854 186.619737 
L 275.96547 239.105372 
L 276.530087 269.611144 
L 277.094704 157.528036 
L 277.65932 206.470197 
L 278.223937 205.386598 
L 278.788553 140.152199 
L 279.35317 224.172358 
L 279.917787 184.671471 
L 280.482403 183.303952 
L 281.04702 235.218981 
L 281.611636 265.329293 
L 282.176253 153.490466 
L 282.74087 202.488398 
L 283.305486 201.771683 
L 283.870103 136.894489 
L 284.434719 221.154321 
L 284.999336 182.110657 
L 285.563953 180.969905 
L 286.128569 233.243522 
L 286.693186 264.005099 
L 287.257802 152.95535 
L 287.822419 201.856491 
L 288.387036 200.844794 
L 288.951652 135.749589 
L 289.516269 219.644841 
L 290.080885 180.304351 
L 290.645502 178.786115 
L 291.210119 230.665654 
L 291.774735 261.144693 
L 292.339352 149.902284 
L 292.903968 198.743506 
L 293.468585 198.064125 
L 294.033202 133.280496 
L 294.597818 217.387766 
L 295.162435 178.408169 
L 295.727051 176.91436 
L 296.291668 228.956601 
L 296.856285 259.56746 
L 297.420901 148.788265 
L 297.985518 197.738723 
L 298.550134 196.96209 
L 299.114751 132.059085 
L 299.679368 215.879209 
L 300.243984 176.719395 
L 300.808601 175.128796 
L 301.373217 227.42085 
L 301.937834 258.489853 
L 302.502451 148.038365 
L 303.067067 197.073169 
L 303.631684 196.590597 
L 304.1963 131.957685 
L 304.760917 216.062651 
L 305.325534 177.236536 
L 305.89015 175.727518 
L 306.454767 227.892821 
L 307.019383 258.56406 
L 307.584 147.882117 
L 308.148617 196.652359 
L 308.713233 195.779396 
L 309.27785 130.864868 
L 309.842466 214.395079 
L 310.407083 175.063808 
L 310.9717 173.162555 
L 311.536316 224.936546 
L 312.100933 255.462598 
L 312.665549 144.888508 
L 313.230166 193.575325 
L 313.794783 193.005641 
L 314.359399 128.410985 
L 314.924016 212.016324 
L 315.488632 173.133057 
L 316.053249 171.282504 
L 316.617866 223.108117 
L 317.182482 253.68026 
L 317.747099 143.444017 
L 318.311715 192.270029 
L 318.876332 191.564376 
L 319.440949 126.865093 
L 320.005565 210.284686 
L 320.570182 171.392661 
L 321.134798 169.595114 
L 321.699415 221.833241 
L 322.264032 253.104123 
L 322.828648 143.299752 
L 323.393265 192.282013 
L 323.957881 191.986109 
L 324.522498 127.675834 
L 325.087115 211.54804 
L 325.651731 172.990636 
L 326.216348 171.229499 
L 326.780964 223.235328 
L 327.345581 253.990913 
L 327.910198 143.764349 
L 328.474814 192.659037 
L 329.039431 192.064924 
L 329.604047 127.384999 
L 330.168664 210.868659 
L 330.733281 171.872008 
L 331.297897 169.933421 
L 331.862514 221.843381 
L 332.42713 252.947875 
L 332.991747 142.982646 
L 333.556364 191.86535 
L 334.12098 191.484639 
L 334.685597 127.063745 
L 335.250213 210.782469 
L 335.81483 172.016733 
L 336.379447 169.965685 
L 336.944063 221.688054 
L 337.50868 252.547344 
L 338.073296 142.426789 
L 338.637913 191.248653 
L 339.20253 190.66929 
L 339.767146 126.02762 
L 340.331763 209.408497 
L 340.896379 170.348701 
L 341.460996 168.213767 
L 342.025613 219.958721 
L 342.590229 251.044778 
L 343.154846 141.143616 
L 343.719462 189.932295 
L 344.284079 189.545592 
L 344.848696 125.133455 
L 345.413312 208.62495 
L 345.977929 169.779938 
L 346.542545 167.514106 
L 347.107162 219.044737 
L 347.671779 249.819219 
L 348.236395 139.856295 
L 348.801012 188.503936 
L 349.365628 187.90844 
L 349.930245 123.348813 
L 350.494862 206.478955 
L 351.059478 167.39473 
L 351.624095 164.998922 
L 352.188711 216.503741 
L 352.753328 247.455674 
L 353.317945 137.790037 
L 353.882561 186.413249 
L 354.447178 186.127485 
L 355.011794 121.834263 
L 355.576411 205.03769 
L 356.141028 166.389025 
L 356.705644 164.223671 
L 357.270261 215.908246 
L 357.834877 247.168988 
L 358.399494 137.765148 
L 358.964111 186.468097 
L 359.528727 186.189708 
L 360.093344 121.81214 
L 360.65796 204.930759 
L 361.222577 166.093121 
L 361.787194 163.395877 
L 362.35181 214.476199 
L 362.916427 245.011009 
L 363.481043 135.325552 
L 364.04566 183.821093 
L 364.610277 183.480019 
L 365.174893 119.148542 
L 365.73951 202.160691 
L 366.304126 163.468701 
L 366.868743 161.165535 
L 367.43336 213.156154 
L 367.997976 245.025297 
L 368.562593 136.222022 
L 369.127209 185.279872 
L 369.691826 185.420449 
L 370.256443 121.455396 
L 370.821059 204.954265 
L 371.385676 166.541586 
L 371.950292 164.18726 
L 372.514909 215.736327 
L 373.079526 246.778598 
L 373.644142 137.199611 
L 374.208759 186.004883 
L 374.773375 185.702987 
L 375.337992 121.304678 
L 375.902609 204.438968 
L 376.467225 165.632212 
L 377.031842 163.337803 
L 377.596458 215.396175 
L 378.161075 247.501304 
L 378.725692 138.444529 
L 379.290308 187.578429 
L 379.854925 187.830086 
L 380.419542 123.779303 
L 380.984158 207.450552 
L 381.548775 168.964589 
L 382.113391 166.62455 
L 382.678008 218.247363 
L 383.242625 249.472154 
L 383.807241 139.604178 
L 384.371858 188.497944 
L 384.936474 188.316806 
L 385.501091 123.788521 
L 386.065708 207.07445 
L 386.630324 168.137717 
L 387.194941 165.820724 
L 387.759557 217.978192 
L 388.324174 250.344656 
L 388.888791 141.03392 
L 389.453407 190.29457 
L 390.018024 190.719068 
L 390.58264 126.546144 
L 391.147257 210.422498 
L 391.711874 171.835596 
L 392.27649 169.478042 
L 392.841107 221.203638 
L 393.405723 252.665798 
L 393.97034 142.460896 
L 394.534957 191.465742 
L 395.099573 191.404902 
L 395.66419 126.673355 
L 396.228806 210.098018 
L 396.793423 171.00181 
L 397.35804 168.643335 
L 397.922656 220.840441 
L 398.487273 253.385278 
L 398.487273 253.385278 
" clip-path="url(#p86fb5a60d5)" style="fill: none; stroke: #1f77b4; stroke-width: 1.5; stroke-linecap: square"/>
   </g>
   <g id="patch_3">
    <path d="M 57.6 307.584 
L 57.6 41.472 
" style="fill: none; stroke: #000000; stroke-width: 0.8; stroke-linejoin: miter; stroke-linecap: square"/>
   </g>
   <g id="patch_4">
    <path d="M 414.72 307.584 
L 414.72 41.472 
" style="fill: none; stroke: #000000; stroke-width: 0.8; stroke-linejoin: miter; stroke-linecap: square"/>
   </g>
   <g id="patch_5">
    <path d="M 57.6 307.584 
L 414.72 307.584 
" style="fill: none; stroke: #000000; stroke-width: 0.8; stroke-linejoin: miter; stroke-linecap: square"/>
   </g>
   <g id="patch_6">
    <path d="M 57.6 41.472 
L 414.72 41.472 
" style="fill: none; stroke: #000000; stroke-width: 0.8; stroke-linejoin: miter; stroke-linecap: square"/>
   </g>
   <g id="legend_1">
    <g id="patch_7">
     <path d="M 347.473125 64.150125 
L 407.72 64.150125 
Q 409.72 64.150125 409.72 62.150125 
L 409.72 48.472 
Q 409.72 46.472 407.72 46.472 
L 347.473125 46.472 
Q 345.473125 46.472 345.473125 48.472 
L 345.473125 62.150125 
Q 345.473125 64.150125 347.473125 64.150125 
z
" style="fill: #ffffff; opacity: 0.8; stroke: #cccccc; stroke-linejoin: miter"/>
    </g>
    <g id="line2d_28">
     <path d="M 349.473125 54.570438 
L 359.473125 54.570438 
L 369.473125 54.570438 
" style="fill: none; stroke: #1f77b4; stroke-width: 1.5; stroke-linecap: square"/>
    </g>
    <g id="text_16">
     <!-- rl/a2c -->
     <g transform="translate(377.473125 58.070438) scale(0.1 -0.1)">
      <defs>
       <path id="DejaVuSans-6c" d="M 603 4863 
L 1178 4863 
L 1178 0 
L 603 0 
L 603 4863 
z
" transform="scale(0.015625)"/>
       <path id="DejaVuSans-2f" d="M 1625 4666 
L 2156 4666 
L 531 -594 
L 0 -594 
L 1625 4666 
z
" transform="scale(0.015625)"/>
       <path id="DejaVuSans-61" d="M 2194 1759 
Q 1497 1759 1228 1600 
Q 959 1441 959 1056 
Q 959 750 1161 570 
Q 1363 391 1709 391 
Q 2188 391 2477 730 
Q 2766 1069 2766 1631 
L 2766 1759 
L 2194 1759 
z
M 3341 1997 
L 3341 0 
L 2766 0 
L 2766 531 
Q 2569 213 2275 61 
Q 1981 -91 1556 -91 
Q 1019 -91 701 211 
Q 384 513 384 1019 
Q 384 1609 779 1909 
Q 1175 2209 1959 2209 
L 2766 2209 
L 2766 2266 
Q 2766 2663 2505 2880 
Q 2244 3097 1772 3097 
Q 1472 3097 1187 3025 
Q 903 2953 641 2809 
L 641 3341 
Q 956 3463 1253 3523 
Q 1550 3584 1831 3584 
Q 2591 3584 2966 3190 
Q 3341 2797 3341 1997 
z
" transform="scale(0.015625)"/>
       <path id="DejaVuSans-63" d="M 3122 3366 
L 3122 2828 
Q 2878 2963 2633 3030 
Q 2388 3097 2138 3097 
Q 1578 3097 1268 2742 
Q 959 2388 959 1747 
Q 959 1106 1268 751 
Q 1578 397 2138 397 
Q 2388 397 2633 464 
Q 2878 531 3122 666 
L 3122 134 
Q 2881 22 2623 -34 
Q 2366 -91 2075 -91 
Q 1284 -91 818 406 
Q 353 903 353 1747 
Q 353 2603 823 3093 
Q 1294 3584 2113 3584 
Q 2378 3584 2631 3529 
Q 2884 3475 3122 3366 
z
" transform="scale(0.015625)"/>
      </defs>
      <use xlink:href="#DejaVuSans-72"/>
      <use xlink:href="#DejaVuSans-6c" x="41.113281"/>
      <use xlink:href="#DejaVuSans-2f" x="68.896484"/>
      <use xlink:href="#DejaVuSans-61" x="102.587891"/>
      <use xlink:href="#DejaVuSans-32" x="163.867188"/>
      <use xlink:href="#DejaVuSans-63" x="227.490234"/>
     </g>
    </g>
   </g>
  </g>
 </g>
 <defs>
  <clipPath id="p86fb5a60d5">
   <rect x="57.6" y="41.472" width="357.12" height="266.112"/>
  </clipPath>
 </defs>
</svg>
